<mxfile host="Electron" agent="Mozilla/5.0 (Macintosh; Intel Mac OS X 10_15_7) AppleWebKit/537.36 (KHTML, like Gecko) draw.io/26.0.3 Chrome/130.0.6723.137 Electron/33.2.1 Safari/537.36" version="26.0.3">
  <diagram name="Page-1" id="-5gEFGp6vmCek2D7KFQH">
    <mxGraphModel dx="1578" dy="1143" grid="0" gridSize="10" guides="1" tooltips="1" connect="1" arrows="1" fold="1" page="1" pageScale="1" pageWidth="2000" pageHeight="1200" math="0" shadow="0">
      <root>
        <mxCell id="0" />
        <mxCell id="1" parent="0" />
        <mxCell id="tui0RTwlK1HxYO_e-Waz-18" value="SQL" style="edgeStyle=orthogonalEdgeStyle;rounded=0;orthogonalLoop=1;jettySize=auto;html=1;entryX=0.5;entryY=0;entryDx=0;entryDy=0;" edge="1" parent="1" source="tui0RTwlK1HxYO_e-Waz-13" target="tui0RTwlK1HxYO_e-Waz-16">
          <mxGeometry relative="1" as="geometry">
            <Array as="points">
              <mxPoint x="575" y="310" />
              <mxPoint x="575" y="310" />
            </Array>
            <mxPoint as="offset" />
          </mxGeometry>
        </mxCell>
        <mxCell id="tui0RTwlK1HxYO_e-Waz-19" value="API response" style="edgeStyle=orthogonalEdgeStyle;rounded=0;orthogonalLoop=1;jettySize=auto;html=1;entryX=0.5;entryY=0;entryDx=0;entryDy=0;" edge="1" parent="1" source="tui0RTwlK1HxYO_e-Waz-13" target="tui0RTwlK1HxYO_e-Waz-17">
          <mxGeometry relative="1" as="geometry">
            <Array as="points">
              <mxPoint x="655" y="310" />
              <mxPoint x="655" y="310" />
            </Array>
            <mxPoint as="offset" />
          </mxGeometry>
        </mxCell>
        <mxCell id="tui0RTwlK1HxYO_e-Waz-13" value="Backend creates session ID" style="rounded=0;whiteSpace=wrap;html=1;" vertex="1" parent="1">
          <mxGeometry x="540" y="230" width="150" height="60" as="geometry" />
        </mxCell>
        <mxCell id="tui0RTwlK1HxYO_e-Waz-14" value="API" style="edgeStyle=orthogonalEdgeStyle;rounded=0;orthogonalLoop=1;jettySize=auto;html=1;entryX=0.5;entryY=0;entryDx=0;entryDy=0;" edge="1" parent="1" source="tui0RTwlK1HxYO_e-Waz-15" target="tui0RTwlK1HxYO_e-Waz-13">
          <mxGeometry relative="1" as="geometry">
            <mxPoint as="offset" />
          </mxGeometry>
        </mxCell>
        <mxCell id="tui0RTwlK1HxYO_e-Waz-15" value="Student log in page" style="shape=parallelogram;perimeter=parallelogramPerimeter;whiteSpace=wrap;html=1;fixedSize=1;" vertex="1" parent="1">
          <mxGeometry x="530" y="120" width="170" height="60" as="geometry" />
        </mxCell>
        <mxCell id="tui0RTwlK1HxYO_e-Waz-16" value="SessionID stored in DB" style="rounded=0;whiteSpace=wrap;html=1;" vertex="1" parent="1">
          <mxGeometry x="540" y="340" width="70" height="60" as="geometry" />
        </mxCell>
        <mxCell id="tui0RTwlK1HxYO_e-Waz-82" value="Redirect" style="edgeStyle=orthogonalEdgeStyle;rounded=0;orthogonalLoop=1;jettySize=auto;html=1;" edge="1" parent="1" source="tui0RTwlK1HxYO_e-Waz-17" target="tui0RTwlK1HxYO_e-Waz-81">
          <mxGeometry relative="1" as="geometry" />
        </mxCell>
        <mxCell id="tui0RTwlK1HxYO_e-Waz-17" value="Login cookie set + Redirect to main page" style="rounded=0;whiteSpace=wrap;html=1;" vertex="1" parent="1">
          <mxGeometry x="620" y="340" width="70" height="60" as="geometry" />
        </mxCell>
        <mxCell id="tui0RTwlK1HxYO_e-Waz-86" value="SQL" style="edgeStyle=orthogonalEdgeStyle;rounded=0;orthogonalLoop=1;jettySize=auto;html=1;entryX=0.5;entryY=0;entryDx=0;entryDy=0;" edge="1" parent="1" source="tui0RTwlK1HxYO_e-Waz-45" target="tui0RTwlK1HxYO_e-Waz-48">
          <mxGeometry relative="1" as="geometry" />
        </mxCell>
        <mxCell id="tui0RTwlK1HxYO_e-Waz-45" value="Backend receives code&lt;div&gt;+ task info&lt;/div&gt;" style="rounded=0;whiteSpace=wrap;html=1;" vertex="1" parent="1">
          <mxGeometry x="733" y="230" width="150" height="60" as="geometry" />
        </mxCell>
        <mxCell id="tui0RTwlK1HxYO_e-Waz-46" value="API" style="edgeStyle=orthogonalEdgeStyle;rounded=0;orthogonalLoop=1;jettySize=auto;html=1;entryX=0.5;entryY=0;entryDx=0;entryDy=0;" edge="1" parent="1" source="tui0RTwlK1HxYO_e-Waz-47" target="tui0RTwlK1HxYO_e-Waz-45">
          <mxGeometry relative="1" as="geometry">
            <mxPoint as="offset" />
          </mxGeometry>
        </mxCell>
        <mxCell id="tui0RTwlK1HxYO_e-Waz-47" value="Student running code&lt;div&gt;solution to task&lt;/div&gt;" style="shape=parallelogram;perimeter=parallelogramPerimeter;whiteSpace=wrap;html=1;fixedSize=1;" vertex="1" parent="1">
          <mxGeometry x="723" y="120" width="170" height="60" as="geometry" />
        </mxCell>
        <mxCell id="tui0RTwlK1HxYO_e-Waz-89" value="SQL response" style="edgeStyle=orthogonalEdgeStyle;rounded=0;orthogonalLoop=1;jettySize=auto;html=1;entryX=0.5;entryY=0;entryDx=0;entryDy=0;" edge="1" parent="1" source="tui0RTwlK1HxYO_e-Waz-48" target="tui0RTwlK1HxYO_e-Waz-88">
          <mxGeometry relative="1" as="geometry" />
        </mxCell>
        <mxCell id="tui0RTwlK1HxYO_e-Waz-48" value="Task info checked in DB" style="rounded=0;whiteSpace=wrap;html=1;" vertex="1" parent="1">
          <mxGeometry x="732" y="334" width="152" height="60" as="geometry" />
        </mxCell>
        <mxCell id="tui0RTwlK1HxYO_e-Waz-85" value="API" style="edgeStyle=orthogonalEdgeStyle;rounded=0;orthogonalLoop=1;jettySize=auto;html=1;entryX=0.5;entryY=0;entryDx=0;entryDy=0;" edge="1" parent="1" source="tui0RTwlK1HxYO_e-Waz-81" target="tui0RTwlK1HxYO_e-Waz-84">
          <mxGeometry relative="1" as="geometry" />
        </mxCell>
        <mxCell id="tui0RTwlK1HxYO_e-Waz-81" value="Request tasks&lt;div&gt;on main page from backend&lt;/div&gt;" style="rounded=0;whiteSpace=wrap;html=1;" vertex="1" parent="1">
          <mxGeometry x="540" y="438" width="150" height="60" as="geometry" />
        </mxCell>
        <mxCell id="tui0RTwlK1HxYO_e-Waz-84" value="Display class with tasks in" style="shape=parallelogram;perimeter=parallelogramPerimeter;whiteSpace=wrap;html=1;fixedSize=1;" vertex="1" parent="1">
          <mxGeometry x="530" y="536" width="170" height="60" as="geometry" />
        </mxCell>
        <mxCell id="tui0RTwlK1HxYO_e-Waz-91" value="API" style="edgeStyle=orthogonalEdgeStyle;rounded=0;orthogonalLoop=1;jettySize=auto;html=1;entryX=0.5;entryY=0;entryDx=0;entryDy=0;" edge="1" parent="1" source="tui0RTwlK1HxYO_e-Waz-88" target="tui0RTwlK1HxYO_e-Waz-90">
          <mxGeometry relative="1" as="geometry" />
        </mxCell>
        <mxCell id="tui0RTwlK1HxYO_e-Waz-88" value="Docker file created using task container" style="rounded=0;whiteSpace=wrap;html=1;" vertex="1" parent="1">
          <mxGeometry x="732" y="438" width="152" height="60" as="geometry" />
        </mxCell>
        <mxCell id="tui0RTwlK1HxYO_e-Waz-94" style="edgeStyle=orthogonalEdgeStyle;rounded=0;orthogonalLoop=1;jettySize=auto;html=1;entryX=0.5;entryY=0;entryDx=0;entryDy=0;" edge="1" parent="1" source="tui0RTwlK1HxYO_e-Waz-90" target="tui0RTwlK1HxYO_e-Waz-93">
          <mxGeometry relative="1" as="geometry" />
        </mxCell>
        <mxCell id="tui0RTwlK1HxYO_e-Waz-95" value="API response" style="edgeStyle=orthogonalEdgeStyle;rounded=0;orthogonalLoop=1;jettySize=auto;html=1;" edge="1" parent="1" source="tui0RTwlK1HxYO_e-Waz-90" target="tui0RTwlK1HxYO_e-Waz-93">
          <mxGeometry relative="1" as="geometry" />
        </mxCell>
        <mxCell id="tui0RTwlK1HxYO_e-Waz-90" value="Container runs code" style="rounded=0;whiteSpace=wrap;html=1;" vertex="1" parent="1">
          <mxGeometry x="731" y="533" width="152" height="60" as="geometry" />
        </mxCell>
        <mxCell id="tui0RTwlK1HxYO_e-Waz-93" value="Container response&lt;div&gt;send back to frontend&lt;/div&gt;" style="shape=parallelogram;perimeter=parallelogramPerimeter;whiteSpace=wrap;html=1;fixedSize=1;" vertex="1" parent="1">
          <mxGeometry x="722" y="628" width="170" height="60" as="geometry" />
        </mxCell>
      </root>
    </mxGraphModel>
  </diagram>
</mxfile>
